<svg width="41" height="41" viewBox="0 0 41 41" fill="none" xmlns="http://www.w3.org/2000/svg">
    <path d="M38.4917 14.4525L26.5351 2.49245C24.9207 0.879788 22.7768 -0.0102539 20.4944 -0.0102539C18.2121 -0.0102539 16.0665 0.879788 14.4538 2.49245L2.49716 14.4525C-0.832385 17.782 -0.832385 23.1992 2.49716 26.5287L14.4538 38.4888C16.0665 40.1014 18.2121 40.9915 20.4944 40.9915C22.7768 40.9915 24.9207 40.1014 26.5351 38.4888L38.4917 26.5287C40.1044 24.916 40.9927 22.7721 40.9927 20.4915C40.9927 18.2108 40.1044 16.0652 38.4917 14.4525ZM18.7844 11.9583C18.7844 11.0136 19.5497 10.25 20.4927 10.25C21.4357 10.25 22.2011 11.0136 22.2011 11.9583V21.3542C22.2011 22.2989 21.4357 23.0625 20.4927 23.0625C19.5497 23.0625 18.7844 22.2989 18.7844 21.3542V11.9583ZM20.4927 30.75C19.0782 30.75 17.9302 29.602 17.9302 28.1875C17.9302 26.773 19.0782 25.625 20.4927 25.625C21.9072 25.625 23.0552 26.773 23.0552 28.1875C23.0552 29.602 21.9072 30.75 20.4927 30.75Z" fill="#E62F29"/>
</svg>
