<svg width="24" height="24" viewBox="0 0 24 24" fill="none" xmlns="http://www.w3.org/2000/svg">
    <g clip-path="url(#clip0_333_1052)">
        <path d="M23.9996 23.5C23.9996 23.776 23.7756 24 23.4996 24H0.49964C0.22364 24 -0.000359705 23.776 -0.000359705 23.5C-0.000359705 23.224 0.22364 23 0.49964 23H23.4996C23.7756 23 23.9996 23.224 23.9996 23.5ZM0.24064 7.77897C-0.12136 7.08697 -0.0743597 6.29497 0.36664 5.66097C0.77664 5.06997 2.31164 4.27197 2.31364 4.27097L9.76464 0.541969C11.1606 -0.186031 12.8366 -0.187031 14.2426 0.545969L21.8936 4.42497L21.8986 4.42697C21.8986 4.42697 23.2536 5.11297 23.6336 5.65897C24.0736 6.29297 24.1206 7.08497 23.7586 7.77697C23.3636 8.52997 22.5806 8.99797 21.7136 8.99797H20.9996V18.998H22.4996C22.7756 18.998 22.9996 19.222 22.9996 19.498C22.9996 19.774 22.7756 19.998 22.4996 19.998H1.49964C1.22364 19.998 0.99964 19.774 0.99964 19.498C0.99964 19.222 1.22364 18.998 1.49964 18.998H2.99964V8.99797H2.28564C1.41864 8.99797 0.63564 8.52997 0.24064 7.77697V7.77897ZM3.99964 19H8.00164L8.03664 8.99997H3.99964V19ZM9.03664 8.99997L9.00164 19H14.9996V8.99997H9.03664ZM19.9996 8.99997H15.9996V19H19.9996V8.99997ZM1.12764 7.31497C1.34864 7.73697 1.79164 7.99997 2.28564 7.99997H21.7136C22.2076 7.99997 22.6516 7.73797 22.8716 7.31497C23.0606 6.95297 23.0386 6.55797 22.8116 6.23097C22.5766 5.89297 22.1186 5.66197 21.6756 5.43797L13.7846 1.43597C13.2246 1.14397 12.6106 0.997969 11.9986 0.997969C11.3866 0.997969 10.7756 1.14297 10.2186 1.43297L2.76164 5.16497C2.19664 5.45897 1.45664 5.84297 1.18864 6.23097C0.96064 6.55897 0.93864 6.95397 1.12764 7.31497Z" fill="#2A2767"/>
    </g>
    <defs>
        <clipPath id="clip0_333_1052">
            <rect width="24" height="24" fill="white"/>
        </clipPath>
    </defs>
</svg>
