<svg width="17" height="18" viewBox="0 0 17 18" fill="none" xmlns="http://www.w3.org/2000/svg">
    <g clip-path="url(#clip0_339_1802)">
        <path d="M16.2917 16.0833H3.54167C2.97808 16.0833 2.43758 15.8595 2.03906 15.4609C1.64055 15.0624 1.41667 14.5219 1.41667 13.9583V1.20833C1.41667 1.02047 1.34204 0.840304 1.2092 0.707466C1.07636 0.574628 0.896195 0.5 0.708333 0.5C0.520472 0.5 0.340304 0.574628 0.207466 0.707466C0.0746278 0.840304 0 1.02047 0 1.20833L0 13.9583C0.00112473 14.8973 0.374625 15.7975 1.03857 16.4614C1.70252 17.1254 2.6027 17.4989 3.54167 17.5H16.2917C16.4795 17.5 16.6597 17.4254 16.7925 17.2925C16.9254 17.1597 17 16.9795 17 16.7917C17 16.6038 16.9254 16.4236 16.7925 16.2908C16.6597 16.158 16.4795 16.0833 16.2917 16.0833Z" fill="#2A2767"/>
        <path d="M4.25033 14.6667C4.43819 14.6667 4.61835 14.5921 4.75119 14.4593C4.88403 14.3264 4.95866 14.1463 4.95866 13.9584V9.00008C4.95866 8.81222 4.88403 8.63205 4.75119 8.49921C4.61835 8.36638 4.43819 8.29175 4.25033 8.29175C4.06246 8.29175 3.8823 8.36638 3.74946 8.49921C3.61662 8.63205 3.54199 8.81222 3.54199 9.00008V13.9584C3.54199 14.1463 3.61662 14.3264 3.74946 14.4593C3.8823 14.5921 4.06246 14.6667 4.25033 14.6667Z" fill="#2A2767"/>
        <path d="M7.08301 7.58333V13.9583C7.08301 14.1462 7.15764 14.3264 7.29047 14.4592C7.42331 14.592 7.60348 14.6667 7.79134 14.6667C7.9792 14.6667 8.15937 14.592 8.29221 14.4592C8.42505 14.3264 8.49967 14.1462 8.49967 13.9583V7.58333C8.49967 7.39547 8.42505 7.2153 8.29221 7.08247C8.15937 6.94963 7.9792 6.875 7.79134 6.875C7.60348 6.875 7.42331 6.94963 7.29047 7.08247C7.15764 7.2153 7.08301 7.39547 7.08301 7.58333Z" fill="#2A2767"/>
        <path d="M10.625 9.70833V13.9583C10.625 14.1462 10.6996 14.3264 10.8325 14.4592C10.9653 14.592 11.1455 14.6667 11.3333 14.6667C11.5212 14.6667 11.7014 14.592 11.8342 14.4592C11.967 14.3264 12.0417 14.1462 12.0417 13.9583V9.70833C12.0417 9.52047 11.967 9.3403 11.8342 9.20747C11.7014 9.07463 11.5212 9 11.3333 9C11.1455 9 10.9653 9.07463 10.8325 9.20747C10.6996 9.3403 10.625 9.52047 10.625 9.70833Z" fill="#2A2767"/>
        <path d="M14.167 6.87508V13.9584C14.167 14.1463 14.2416 14.3264 14.3745 14.4593C14.5073 14.5921 14.6875 14.6667 14.8753 14.6667C15.0632 14.6667 15.2434 14.5921 15.3762 14.4593C15.509 14.3264 15.5837 14.1463 15.5837 13.9584V6.87508C15.5837 6.68722 15.509 6.50705 15.3762 6.37421C15.2434 6.24138 15.0632 6.16675 14.8753 6.16675C14.6875 6.16675 14.5073 6.24138 14.3745 6.37421C14.2416 6.50705 14.167 6.68722 14.167 6.87508Z" fill="#2A2767"/>
        <path d="M4.25017 6.87508C4.43802 6.87504 4.61816 6.80039 4.75097 6.66754L7.29105 4.12746C7.42606 3.99884 7.60538 3.9271 7.79184 3.9271C7.97831 3.9271 8.15762 3.99884 8.29263 4.12746L9.83113 5.66596C10.2296 6.06434 10.77 6.28813 11.3335 6.28813C11.897 6.28813 12.4374 6.06434 12.8359 5.66596L16.7926 1.70921C16.9217 1.57562 16.9931 1.39669 16.9914 1.21097C16.9898 1.02524 16.9153 0.847586 16.784 0.716255C16.6527 0.584924 16.475 0.51043 16.2893 0.508816C16.1036 0.507202 15.9246 0.578598 15.791 0.707627L11.8343 4.66367C11.7015 4.79646 11.5213 4.87106 11.3335 4.87106C11.1457 4.87106 10.9655 4.79646 10.8327 4.66367L9.29422 3.12588C8.89572 2.7275 8.35531 2.50371 7.79184 2.50371C7.22837 2.50371 6.68796 2.7275 6.28947 3.12588L3.74938 5.66596C3.65035 5.76502 3.58291 5.89122 3.55559 6.0286C3.52828 6.16599 3.5423 6.30839 3.5959 6.4378C3.6495 6.56721 3.74027 6.67783 3.85672 6.75566C3.97318 6.8335 4.1101 6.87505 4.25017 6.87508Z" fill="#2A2767"/>
    </g>
    <defs>
        <clipPath id="clip0_339_1802">
            <rect width="17" height="17" fill="white" transform="translate(0 0.5)"/>
        </clipPath>
    </defs>
</svg>
