<svg width="41" height="41" viewBox="0 0 41 41" fill="none" xmlns="http://www.w3.org/2000/svg">
    <path d="M40.9656 20.4667C40.9656 17.6889 39.7459 15.0684 37.6771 13.4215C37.9163 10.6506 36.9254 7.93606 34.9608 5.96977C32.9963 4.0069 30.2885 3.01777 27.6543 3.31331C24.2137 -1.05319 16.7808 -1.13519 13.4205 3.25352C10.6461 3.00752 7.935 4.00348 5.97042 5.96977C4.00754 7.93436 3.01671 10.6506 3.31396 13.2763C-1.05254 16.7169 -1.13625 24.1499 3.25417 27.5119C3.015 30.2828 4.00584 32.9973 5.97042 34.9636C7.935 36.9265 10.6461 37.919 13.277 37.6201C16.7175 41.9866 24.1505 42.0686 27.5108 37.6799C30.2783 37.9122 32.9945 36.9299 34.9608 34.9636C36.9237 32.999 37.9145 30.2828 37.6173 27.6571C39.7459 25.8667 40.9656 23.2461 40.9656 20.4684V20.4667ZM29.9298 18.0169L21.834 25.8206C19.8472 27.804 16.5963 27.7869 14.6095 25.7984L10.7623 22.2246C10.0721 21.5822 10.0311 20.5009 10.6735 19.8107C11.3175 19.1188 12.4006 19.0812 13.0873 19.7219L16.9789 23.3384C17.693 24.0508 18.7727 24.0491 19.4389 23.3811L27.5569 15.5552C28.2368 14.9026 29.3182 14.9214 29.9725 15.5996C30.6285 16.2779 30.608 17.3609 29.9298 18.0152V18.0169Z" fill="#4BC27E"/>
</svg>
