<svg width="41" height="41" viewBox="0 0 41 41" fill="none" xmlns="http://www.w3.org/2000/svg">
    <g clip-path="url(#clip0_402_3776)">
        <path d="M20.5 0C16.4455 0 12.482 1.2023 9.11082 3.45487C5.73961 5.70744 3.11208 8.90911 1.56048 12.655C0.00888236 16.4009 -0.397086 20.5227 0.393911 24.4994C1.18491 28.476 3.13734 32.1287 6.00432 34.9957C8.8713 37.8627 12.524 39.8151 16.5007 40.6061C20.4773 41.3971 24.5991 40.9911 28.345 39.4395C32.0909 37.8879 35.2926 35.2604 37.5451 31.8892C39.7977 28.518 41 24.5545 41 20.5C40.9941 15.0649 38.8324 9.85403 34.9892 6.0108C31.146 2.16758 25.9351 0.00587851 20.5 0ZM20.5 37.5833C17.1212 37.5833 13.8184 36.5814 11.009 34.7043C8.19968 32.8271 6.01006 30.1591 4.71707 27.0375C3.42407 23.9159 3.08576 20.4811 3.74493 17.1672C4.40409 13.8534 6.03112 10.8094 8.42027 8.42026C10.8094 6.03111 13.8534 4.40408 17.1672 3.74492C20.4811 3.08575 23.9159 3.42406 27.0375 4.71706C30.1591 6.01006 32.8271 8.19967 34.7043 11.009C36.5814 13.8183 37.5833 17.1212 37.5833 20.5C37.5784 25.0293 35.7769 29.3716 32.5743 32.5742C29.3716 35.7769 25.0293 37.5784 20.5 37.5833Z" fill="#E62F29"/>
        <path d="M20.5003 8.5415C20.0472 8.5415 19.6127 8.72149 19.2924 9.04186C18.972 9.36224 18.792 9.79676 18.792 10.2498V23.9165C18.792 24.3696 18.972 24.8041 19.2924 25.1245C19.6127 25.4449 20.0472 25.6248 20.5003 25.6248C20.9534 25.6248 21.3879 25.4449 21.7083 25.1245C22.0287 24.8041 22.2087 24.3696 22.2087 23.9165V10.2498C22.2087 9.79676 22.0287 9.36224 21.7083 9.04186C21.3879 8.72149 20.9534 8.5415 20.5003 8.5415Z" fill="#E62F29"/>
        <path d="M22.2087 30.7498C22.2087 29.8064 21.4438 29.0415 20.5003 29.0415C19.5568 29.0415 18.792 29.8064 18.792 30.7498C18.792 31.6933 19.5568 32.4582 20.5003 32.4582C21.4438 32.4582 22.2087 31.6933 22.2087 30.7498Z" fill="#E62F29"/>
    </g>
    <defs>
        <clipPath id="clip0_402_3776">
            <rect width="41" height="41" fill="white"/>
        </clipPath>
    </defs>
</svg>
