<svg width="15" height="13" viewBox="0 0 15 13" fill="none" xmlns="http://www.w3.org/2000/svg">
    <path d="M10.9361 0C10.2326 0.0107932 9.54446 0.204498 8.94115 0.561552C8.33783 0.918607 7.84071 1.42637 7.5 2.03356C7.15929 1.42637 6.66217 0.918607 6.05886 0.561552C5.45554 0.204498 4.76738 0.0107932 4.06389 0C2.94243 0.0480602 1.88583 0.531963 1.12494 1.34599C0.364041 2.16002 -0.0393025 3.238 0.00302447 4.34442C0.00302447 7.14642 2.99307 10.2066 5.50081 12.2815C6.06072 12.7456 6.76864 13 7.5 13C8.23136 13 8.93928 12.7456 9.49919 12.2815C12.0069 10.2066 14.997 7.14642 14.997 4.34442C15.0393 3.238 14.636 2.16002 13.8751 1.34599C13.1142 0.531963 12.0576 0.0480602 10.9361 0Z" fill="#FF0037"/>
</svg>
