<svg width="23" height="23" viewBox="0 0 23 23" fill="none" xmlns="http://www.w3.org/2000/svg">
<path d="M11.5 8.87031C9.91492 8.87031 8.625 10.1602 8.625 11.7453C8.625 13.3304 9.91492 14.6203 11.5 14.6203C13.0851 14.6203 14.375 13.3304 14.375 11.7453C14.375 10.1602 13.0851 8.87031 11.5 8.87031ZM11.5 13.662C10.443 13.662 9.58333 12.8024 9.58333 11.7453C9.58333 10.6883 10.443 9.82865 11.5 9.82865C12.557 9.82865 13.4167 10.6883 13.4167 11.7453C13.4167 12.8024 12.557 13.662 11.5 13.662ZM21.1888 14.2456C20.8974 14.1555 19.9285 13.8306 18.8121 13.225C19.7589 12.3165 20.631 11.1396 21.3373 9.4319C21.8404 8.21577 21.4887 6.84631 20.4604 6.02311L16.031 2.47632C15.4167 1.98565 14.6213 1.80548 13.8498 1.9799C13.0937 2.15144 12.4718 2.64019 12.143 3.32252C11.7003 4.23965 11.2 4.95936 10.6634 5.5679C9.80758 4.37573 9.15879 3.11648 8.75438 1.81027C8.41417 0.710107 7.46446 -0.000976562 6.3365 -0.000976562H1.91667C0.859625 -1.82291e-05 0 0.859607 0 1.91665C0 2.75232 0.5405 3.45669 1.288 3.71832C1.08004 4.02498 0.958333 4.39394 0.958333 4.79165C0.958333 5.62732 1.49883 6.33169 2.24633 6.59332C2.03838 6.89998 1.91667 7.26894 1.91667 7.66665C1.91667 8.72369 2.77629 9.58331 3.83333 9.58331H5.10983C3.956 10.4314 2.83283 11.5134 1.83329 13.201C1.09825 14.443 1.39917 16.0128 2.54821 16.9328L7.02458 20.5169C7.48554 20.8869 8.05958 21.0833 8.64608 21.0833C8.79654 21.0833 8.947 21.0699 9.09746 21.044C9.80088 20.9214 10.4123 20.5131 10.7745 19.9247C11.5795 18.6146 12.4823 17.7109 13.4157 16.9836V19.1666C13.4157 20.2237 14.2753 21.0833 15.3324 21.0833C15.7291 21.0833 16.099 20.9616 16.4057 20.7536C16.6673 21.5011 17.3727 22.0416 18.2074 22.0416C18.6041 22.0416 18.974 21.9199 19.2807 21.712C19.5423 22.4595 20.2477 23 21.0824 23C22.1394 23 22.999 22.1404 22.999 21.0833V16.6644C22.999 15.5355 22.288 14.5868 21.1878 14.2466L21.1888 14.2456ZM3.83333 8.62498C3.30529 8.62498 2.875 8.19469 2.875 7.66665C2.875 7.13861 3.30529 6.70831 3.83333 6.70831H5.27083C5.53533 6.70831 5.75 6.49365 5.75 6.22915C5.75 5.96465 5.53533 5.74998 5.27083 5.74998H2.875C2.34696 5.74998 1.91667 5.31969 1.91667 4.79165C1.91667 4.26361 2.34696 3.83331 2.875 3.83331H4.3125C4.577 3.83331 4.79167 3.61865 4.79167 3.35415C4.79167 3.08965 4.577 2.87498 4.3125 2.87498H1.91667C1.38863 2.87498 0.958333 2.44469 0.958333 1.91665C0.958333 1.38861 1.38863 0.958315 1.91667 0.958315H6.33554C7.04567 0.958315 7.62163 1.39436 7.83821 2.0949C8.28958 3.55156 9.01696 4.95073 9.98296 6.26748C9.10992 7.06769 8.15829 7.65036 7.176 8.24452C6.96804 8.37006 6.76008 8.49656 6.55117 8.62498H3.83333ZM9.959 19.4235C9.73763 19.7838 9.37346 20.0244 8.93454 20.101C8.46592 20.1815 7.98962 20.0608 7.6245 19.7694L3.14813 16.1853C2.37475 15.5662 2.16967 14.5168 2.65842 13.6898C4.12754 11.2077 5.93017 10.1171 7.67242 9.0639C9.591 7.90336 11.5757 6.70352 13.0055 3.74036C13.2068 3.32252 13.5911 3.02256 14.0616 2.91619C14.5485 2.80598 15.0487 2.91811 15.433 3.22477L19.8624 6.77156C20.5543 7.32644 20.792 8.24836 20.4527 9.06581C19.1245 12.2762 17.2117 13.4329 15.1867 14.6567C13.3879 15.7444 11.5288 16.8695 9.959 19.4235ZM22.0417 21.0833C22.0417 21.6114 21.6123 22.0416 21.0833 22.0416C20.5543 22.0416 20.125 21.6114 20.125 21.0833V18.6875C20.125 18.423 19.9103 18.2083 19.6458 18.2083C19.3813 18.2083 19.1667 18.423 19.1667 18.6875V20.125C19.1667 20.653 18.7373 21.0833 18.2083 21.0833C17.6793 21.0833 17.25 20.653 17.25 20.125V17.7291C17.25 17.4646 17.0353 17.25 16.7708 17.25C16.5063 17.25 16.2917 17.4646 16.2917 17.7291V19.1666C16.2917 19.6947 15.8623 20.125 15.3333 20.125C14.8043 20.125 14.375 19.6947 14.375 19.1666V16.2926C14.8101 16.0051 15.248 15.7387 15.6822 15.4771C16.4747 14.9979 17.2768 14.5091 18.0483 13.8958C19.3679 14.6548 20.5649 15.0554 20.906 15.1608C21.6066 15.3784 22.0426 15.9534 22.0426 16.6635V21.0824L22.0417 21.0833Z" fill="#2A2767"/>
</svg>
