<svg width="21" height="21" viewBox="0 0 21 21" fill="none" xmlns="http://www.w3.org/2000/svg">
    <g clip-path="url(#clip0_290_2325)">
        <path d="M1.75 13.125H9.625V21H6.125C4.96468 21 3.85188 20.5391 3.03141 19.7186C2.21094 18.8981 1.75 17.7853 1.75 16.625V13.125ZM21 9.625C21 10.0891 20.8156 10.5342 20.4874 10.8624C20.1592 11.1906 19.7141 11.375 19.25 11.375H11.375V7.83737C11.081 7.86012 10.7879 7.875 10.5 7.875C10.2121 7.875 9.919 7.86012 9.625 7.83737V11.375H1.75C1.28587 11.375 0.840752 11.1906 0.512563 10.8624C0.184374 10.5342 0 10.0891 0 9.625C0 8.69674 0.368749 7.8065 1.02513 7.15013C1.6815 6.49375 2.57174 6.125 3.5 6.125H5.02075C4.52602 5.6889 4.13332 5.14927 3.87051 4.5444C3.60769 3.93953 3.4812 3.28423 3.5 2.625C3.5 2.39294 3.59219 2.17038 3.75628 2.00628C3.92038 1.84219 4.14294 1.75 4.375 1.75C4.60706 1.75 4.82962 1.84219 4.99372 2.00628C5.15781 2.17038 5.25 2.39294 5.25 2.625C5.25 4.91925 7.32463 5.71375 8.90225 5.98588C8.31995 4.95342 7.96942 3.80657 7.875 2.625C7.875 1.92881 8.15156 1.26113 8.64384 0.768845C9.13613 0.276562 9.80381 0 10.5 0C11.1962 0 11.8639 0.276562 12.3562 0.768845C12.8484 1.26113 13.125 1.92881 13.125 2.625C13.0306 3.80657 12.68 4.95342 12.0977 5.98588C13.6754 5.71375 15.75 4.91925 15.75 2.625C15.75 2.39294 15.8422 2.17038 16.0063 2.00628C16.1704 1.84219 16.3929 1.75 16.625 1.75C16.8571 1.75 17.0796 1.84219 17.2437 2.00628C17.4078 2.17038 17.5 2.39294 17.5 2.625C17.5188 3.28423 17.3923 3.93953 17.1295 4.5444C16.8667 5.14927 16.474 5.6889 15.9792 6.125H17.5C18.4283 6.125 19.3185 6.49375 19.9749 7.15013C20.6313 7.8065 21 8.69674 21 9.625ZM9.625 2.625C9.73063 3.55497 10.0286 4.4528 10.5 5.26137C10.9714 4.4528 11.2694 3.55497 11.375 2.625C11.375 2.39294 11.2828 2.17038 11.1187 2.00628C10.9546 1.84219 10.7321 1.75 10.5 1.75C10.2679 1.75 10.0454 1.84219 9.88128 2.00628C9.71719 2.17038 9.625 2.39294 9.625 2.625ZM11.375 21H14.875C15.4495 21 16.0184 20.8868 16.5492 20.667C17.08 20.4471 17.5623 20.1248 17.9686 19.7186C18.3748 19.3123 18.6971 18.83 18.917 18.2992C19.1368 17.7684 19.25 17.1995 19.25 16.625V13.125H11.375V21Z" fill="#2A2767"/>
    </g>
    <defs>
        <clipPath id="clip0_290_2325">
            <rect width="21" height="21" fill="white"/>
        </clipPath>
    </defs>
</svg>
