<svg width="24" height="24" viewBox="0 0 24 24" fill="none" xmlns="http://www.w3.org/2000/svg">
    <g clip-path="url(#clip0_363_3194)">
        <path d="M7.00573 24C5.14773 24 3.37273 23.273 2.04973 21.95C0.55373 20.454 -0.18027 18.38 0.0377303 16.261C0.32673 13.444 2.36273 11.033 5.10373 10.264C6.40573 9.899 7.71373 9.91 8.99673 10.296L18.5607 0.732C19.0337 0.26 19.6607 0 20.3287 0H22.5007C23.3277 0 24.0007 0.673 24.0007 1.5V3.671C24.0007 4.339 23.7407 4.967 23.2687 5.439L21.7077 7H19.0007V10H16.0007V12.707L13.7047 15.003C14.0907 16.286 14.1007 17.594 13.7357 18.896C12.9667 21.637 10.5577 23.673 7.73873 23.963C7.49473 23.988 7.24973 24.001 7.00673 24.001L7.00573 24ZM7.00173 10.999C6.45973 10.999 5.91673 11.075 5.37373 11.227C3.02473 11.886 1.27973 13.951 1.03173 16.364C0.84473 18.182 1.47373 19.96 2.75673 21.243C4.03973 22.526 5.81673 23.155 7.63673 22.968C10.0497 22.72 12.1147 20.975 12.7727 18.626C13.1107 17.422 13.0737 16.213 12.6617 15.03L12.5587 14.734L14.9997 12.293V9H17.9997V6H21.2927L22.5607 4.732C22.8437 4.449 22.9997 4.072 22.9997 3.671V1.5C22.9997 1.224 22.7747 1 22.4997 1H20.3277C19.9327 1 19.5467 1.16 19.2667 1.439L9.26473 11.44L8.96873 11.337C8.31973 11.111 7.66173 10.998 7.00073 10.998L7.00173 10.999ZM4.99973 18C4.99973 18.552 5.44773 19 5.99973 19C6.55173 19 6.99973 18.552 6.99973 18C6.99973 17.448 6.55173 17 5.99973 17C5.44773 17 4.99973 17.448 4.99973 18Z" fill="#2A2767"/>
    </g>
    <defs>
        <clipPath id="clip0_363_3194">
            <rect width="24" height="24" fill="white"/>
        </clipPath>
    </defs>
</svg>
