<svg width="22" height="23" viewBox="0 0 22 23" fill="none" xmlns="http://www.w3.org/2000/svg">
    <g clip-path="url(#clip0_278_3979)">
        <path d="M16.0422 1.83716C15.01 1.85394 14.0003 2.15518 13.1151 2.71046C12.2298 3.26574 11.5004 4.05538 11.0005 4.99966C10.5006 4.05538 9.77122 3.26574 8.886 2.71046C8.00078 2.15518 6.99108 1.85394 5.95887 1.83716C4.31339 1.9119 2.7631 2.66444 1.64667 3.93038C0.530236 5.19632 -0.0615732 6.87275 0.000531428 8.59341C0.000531428 12.951 4.3877 17.71 8.0672 20.9367C8.88873 21.6585 9.92744 22.0542 11.0005 22.0542C12.0736 22.0542 13.1123 21.6585 13.9339 20.9367C17.6134 17.71 22.0005 12.951 22.0005 8.59341C22.0626 6.87275 21.4708 5.19632 20.3544 3.93038C19.238 2.66444 17.6877 1.9119 16.0422 1.83716ZM12.7559 19.4705C12.2646 19.9031 11.6429 20.1403 11.0005 20.1403C10.3582 20.1403 9.73646 19.9031 9.24511 19.4705C4.53528 15.3391 1.83386 11.3755 1.83386 8.59341C1.7712 7.38084 2.1697 6.19157 2.94245 5.28495C3.7152 4.37834 4.7995 3.82795 5.95887 3.75382C7.11823 3.82795 8.20253 4.37834 8.97528 5.28495C9.74803 6.19157 10.1465 7.38084 10.0839 8.59341C10.0839 8.84757 10.1804 9.09133 10.3524 9.27105C10.5243 9.45077 10.7574 9.55174 11.0005 9.55174C11.2436 9.55174 11.4768 9.45077 11.6487 9.27105C11.8206 9.09133 11.9172 8.84757 11.9172 8.59341C11.8545 7.38084 12.253 6.19157 13.0258 5.28495C13.7985 4.37834 14.8828 3.82795 16.0422 3.75382C17.2016 3.82795 18.2859 4.37834 19.0586 5.28495C19.8314 6.19157 20.2299 7.38084 20.1672 8.59341C20.1672 11.3755 17.4658 15.3391 12.7559 19.4667V19.4705Z" fill="#2A2767"/>
    </g>
    <defs>
        <clipPath id="clip0_278_3979">
            <rect width="22" height="23" fill="white"/>
        </clipPath>
    </defs>
</svg>
