<svg width="19" height="20" viewBox="0 0 19 20" fill="none" xmlns="http://www.w3.org/2000/svg">
    <g clip-path="url(#clip0_363_3327)">
        <path d="M9.08517 12.375C8.8752 12.375 8.67384 12.4584 8.52537 12.6069C8.37691 12.7553 8.2935 12.9567 8.2935 13.1667V15.5417C8.2935 16.1716 8.04328 16.7756 7.59788 17.221C7.15248 17.6664 6.54839 17.9167 5.9185 17.9167H3.95833C3.32844 17.9167 2.72435 17.6664 2.27895 17.221C1.83356 16.7756 1.58333 16.1716 1.58333 15.5417V4.45833C1.58333 3.82844 1.83356 3.22435 2.27895 2.77895C2.72435 2.33356 3.32844 2.08333 3.95833 2.08333H5.9185C6.54839 2.08333 7.15248 2.33356 7.59788 2.77895C8.04328 3.22435 8.2935 3.82844 8.2935 4.45833V6.83333C8.2935 7.0433 8.37691 7.24466 8.52537 7.39313C8.67384 7.54159 8.8752 7.625 9.08517 7.625C9.29513 7.625 9.49649 7.54159 9.64496 7.39313C9.79342 7.24466 9.87683 7.0433 9.87683 6.83333V4.45833C9.87558 3.4089 9.45813 2.40282 8.71607 1.66076C7.97402 0.918698 6.96793 0.501257 5.9185 0.5H3.95833C2.9089 0.501257 1.90282 0.918698 1.16076 1.66076C0.418698 2.40282 0.00125705 3.4089 0 4.45833L0 15.5417C0.00125705 16.5911 0.418698 17.5972 1.16076 18.3392C1.90282 19.0813 2.9089 19.4987 3.95833 19.5H5.9185C6.96793 19.4987 7.97402 19.0813 8.71607 18.3392C9.45813 17.5972 9.87558 16.5911 9.87683 15.5417V13.1667C9.87683 12.9567 9.79342 12.7553 9.64496 12.6069C9.49649 12.4584 9.29513 12.375 9.08517 12.375Z" fill="#E62F29"/>
        <path d="M18.1027 8.32076L14.4721 4.69017C14.3991 4.61456 14.3117 4.55425 14.2152 4.51276C14.1186 4.47127 14.0147 4.44943 13.9096 4.44852C13.8045 4.4476 13.7002 4.46763 13.6029 4.50744C13.5056 4.54724 13.4172 4.60603 13.3429 4.68036C13.2686 4.75469 13.2098 4.84308 13.17 4.94038C13.1302 5.03767 13.1101 5.14192 13.1111 5.24703C13.112 5.35215 13.1338 5.45603 13.1753 5.55262C13.2168 5.6492 13.2771 5.73656 13.3527 5.80959L16.7268 9.18446L4.74967 9.20821C4.53971 9.20821 4.33835 9.29162 4.18988 9.44009C4.04142 9.58855 3.95801 9.78992 3.95801 9.99988C3.95801 10.2098 4.04142 10.4112 4.18988 10.5597C4.33835 10.7081 4.53971 10.7915 4.74967 10.7915L16.7735 10.767L13.3511 14.1902C13.2755 14.2632 13.2152 14.3506 13.1737 14.4471C13.1322 14.5437 13.1104 14.6476 13.1095 14.7527C13.1086 14.8578 13.1286 14.9621 13.1684 15.0594C13.2082 15.1567 13.267 15.2451 13.3413 15.3194C13.4157 15.3937 13.504 15.4525 13.6013 15.4923C13.6986 15.5321 13.8029 15.5522 13.908 15.5512C14.0131 15.5503 14.117 15.5285 14.2136 15.487C14.3102 15.4455 14.3975 15.3852 14.4705 15.3096L18.1011 11.679C18.5466 11.2338 18.797 10.63 18.7973 10.0002C18.7976 9.37044 18.5478 8.76634 18.1027 8.32076Z" fill="#E62F29"/>
    </g>
    <defs>
        <clipPath id="clip0_363_3327">
            <rect width="19" height="19" fill="white" transform="translate(0 0.5)"/>
        </clipPath>
    </defs>
</svg>
