<svg width="92" height="48" viewBox="0 0 92 48" fill="none" xmlns="http://www.w3.org/2000/svg">
    <g clip-path="url(#clip0_214_1358)">
        <path d="M38.4121 4.84692H44.6563C48.1078 4.84692 49.42 6.66134 49.42 8.53227C49.42 10.1573 48.5649 11.2115 47.6003 11.6552C48.5649 12.0226 49.8294 13.0457 49.8294 14.9392C49.8294 17.4037 47.9088 19.252 44.8694 19.252H38.4121V4.84692ZM44.3002 10.5276C45.7694 10.5276 46.375 9.86341 46.375 8.85163C46.375 7.79747 45.5816 7.25201 44.3899 7.25201H41.4459V10.5276H44.3002ZM41.4431 16.8469H44.2301C45.9012 16.8469 46.6554 16.1432 46.6554 14.8375C46.6554 13.6759 45.9124 12.9355 44.2105 12.9355H41.4403V16.8469H41.4431Z" fill="#2A2767"/>
        <path d="M61.975 13.8229C61.975 17.0957 60.0319 19.5008 56.6337 19.5008C53.3055 19.5008 51.3652 17.107 51.3652 13.8795C51.3652 10.5417 53.3672 8.18469 56.7739 8.18469C59.931 8.18469 61.975 10.4315 61.975 13.8229ZM54.3766 13.8456C54.3766 15.9285 55.2654 17.1607 56.6954 17.1607C58.1506 17.1607 58.9581 15.9256 58.9581 13.8625C58.9581 11.5987 58.1337 10.5304 56.6533 10.5304C55.2766 10.5304 54.3766 11.5563 54.3766 13.8456Z" fill="#2A2767"/>
        <path d="M64.0138 11.3698C64.0138 10.2959 64.011 9.3406 63.9941 8.43622H66.9073C66.9466 8.67928 66.9859 9.75323 66.9859 10.3354C67.4597 9.10038 68.6037 8.196 70.429 8.18469V11.042C68.2728 10.9854 66.9859 11.5705 66.9859 14.5351V19.2492H64.0166V11.3698H64.0138Z" fill="#2A2767"/>
        <path d="M74.368 15.9991C74.5923 16.8611 75.2905 17.3444 76.398 17.3444C77.4943 17.3444 77.8953 16.9487 77.8953 16.293C77.8953 15.5978 77.4354 15.3265 75.8961 14.9449C72.4025 14.0773 71.8277 12.9864 71.8277 11.4602C71.8277 9.87193 72.9409 8.18469 76.1793 8.18469C79.4346 8.18469 80.5365 9.9765 80.629 11.4405H77.8056C77.7102 11.042 77.4467 10.2846 76.0503 10.2846C75.069 10.2846 74.7494 10.7226 74.7494 11.2087C74.7494 11.7457 75.083 12.0057 76.8242 12.4155C80.4047 13.2549 80.9094 14.4927 80.9094 16.0782C80.9094 17.87 79.558 19.4979 76.2859 19.4979C73.0278 19.4979 71.6847 17.9124 71.4492 15.9963H74.368V15.9991Z" fill="#2A2767"/>
        <path d="M91.856 16.457C91.856 17.4857 91.9401 18.9892 92.0018 19.2521H89.1615C89.0773 19.0373 89.0157 18.4692 89.0101 18.1951C88.6203 18.8027 87.8913 19.5036 85.9931 19.5036C83.4052 19.5036 82.3145 17.7909 82.3145 16.1122C82.3145 13.6477 84.2771 12.5116 87.4231 12.5116C87.9474 12.5116 88.5951 12.5116 88.954 12.5116V11.8503C88.954 11.0816 88.6792 10.3241 87.3025 10.3241C86.0492 10.3241 85.7744 10.8611 85.637 11.644H82.8135C82.9734 9.72216 84.1538 8.16775 87.4147 8.18471C90.2886 8.20449 91.8532 9.33497 91.8532 11.9096V16.457H91.856ZM88.9596 14.3288C88.7128 14.3288 88.1409 14.3288 87.7483 14.3288C85.9595 14.3288 85.2949 14.88 85.2949 15.9228C85.2949 16.7057 85.7716 17.3642 86.8399 17.3642C88.7269 17.3642 88.9596 16.0415 88.9596 14.6115V14.3288Z" fill="#2A2767"/>
        <path d="M4.38867 33.4508V34.7339C4.41374 34.5248 4.42489 34.31 4.42489 34.0923C4.42489 33.8747 4.41374 33.6599 4.38867 33.4508Z" fill="black"/>
        <path d="M38.4121 37.3397V22.9346H42.2422C44.0282 26.1677 47.3256 32.001 47.9817 33.5723H48.0209C47.8611 32.0688 47.8611 29.5676 47.8611 27.2049V22.9346H50.6621V37.3397H47.0283C45.4918 34.5248 41.8384 27.8239 41.129 26.1593H41.0898C41.1935 27.4197 41.2272 30.3788 41.2272 32.9591V37.3397H38.4121Z" fill="#2A2767"/>
        <path d="M63.4477 31.9106C63.4477 35.1833 61.5046 37.5884 58.1063 37.5884C54.7782 37.5884 52.8379 35.1946 52.8379 31.9671C52.8379 28.6294 54.8398 26.2723 58.2465 26.2723C61.4037 26.2723 63.4477 28.5192 63.4477 31.9106ZM55.8492 31.9332C55.8492 34.0161 56.7381 35.2483 58.168 35.2483C59.6232 35.2483 60.4307 34.0133 60.4307 31.9502C60.4307 29.6864 59.6064 28.6181 58.126 28.6181C56.7493 28.6181 55.8492 29.644 55.8492 31.9332Z" fill="#2A2767"/>
        <path d="M67.4955 26.5238C68.4629 30.8648 68.99 33.3321 69.1919 34.6745H69.2311C69.4526 33.4706 69.7582 31.772 71.0648 26.5238H73.8266C75.0435 31.8399 75.4052 33.4056 75.5538 34.57H75.5734C75.7921 33.4564 76.123 31.8342 77.3707 26.5238H80.3119L77.1268 37.3396H73.9444C73.0612 33.236 72.5537 31.0768 72.3097 29.6552H72.2901C72.1191 31.009 71.5387 33.4621 70.5938 37.3396H67.3974L64.3496 26.5238H67.4955Z" fill="#2A2767"/>
        <path d="M34.5042 29.8191C34.5042 37.1022 29.4348 42.5596 21.4158 42.5596H13.8987C12.2977 42.5596 10.8481 43.2153 9.79947 44.2723L6.10118 48L2.81507 44.0857L2.80385 44.0744C2.15616 43.2859 1.17481 42.7829 0.0785079 42.7829C0.0532732 42.7829 0.0252347 42.7829 0 42.7857L3.43472 37.3594L3.59454 37.1107C4.01792 36.4041 4.2955 35.5987 4.38803 34.7339C4.41326 34.5247 4.42448 34.3099 4.42448 34.0923C4.42448 33.9482 4.41887 33.8041 4.40766 33.6627C4.39083 33.414 4.38803 33.1682 4.38803 32.9195V8.53792L0.45142 0H9.13215V0.00282619H20.8607C29.9704 0.00282619 33.4247 5.36128 33.4247 10.8921C33.4247 15.6882 31.1732 18.8055 28.6273 20.1168C31.1676 21.1992 34.5042 24.2233 34.5042 29.8191Z" fill="#2854A5"/>
        <path d="M29.2993 27.8295C29.2993 29.0447 29.1984 30.1554 28.9881 31.1531C28.9152 31.512 28.8255 31.854 28.7218 32.1846C28.6348 32.4672 28.5395 32.7357 28.4302 32.9986L28.4245 33.0127C28.3376 33.2275 28.2395 33.4366 28.1357 33.6373C27.4067 35.0589 26.3245 36.1215 24.8665 36.797C24.6169 36.9185 24.359 37.0231 24.087 37.1107C23.7786 37.2209 23.4617 37.3142 23.1253 37.3876H23.1225C22.7804 37.4696 22.4243 37.5346 22.0542 37.5798C21.8916 37.6024 21.7289 37.6222 21.5607 37.6363C21.2607 37.6646 20.9523 37.6844 20.6326 37.69C20.4812 37.6957 20.327 37.6985 20.1728 37.6985H9.68359V18.4861H20.1055C20.2878 18.4861 20.4672 18.4889 20.6439 18.4974C21.3981 18.52 22.0991 18.5991 22.7467 18.7291C23.6804 18.9128 24.5076 19.2011 25.231 19.5883C26.3721 20.1931 27.2581 21.0353 27.9086 22.0838C27.9563 22.1545 27.9984 22.2308 28.0404 22.3043C28.6348 23.3358 29.0105 24.5539 29.1844 25.9274C29.19 25.9614 29.1928 25.9981 29.1956 26.0348C29.2292 26.3005 29.2545 26.5718 29.2685 26.8488C29.2909 27.1681 29.2993 27.496 29.2993 27.8295Z" fill="#2854A5"/>
        <path d="M25.944 11.1691C25.944 11.4969 25.93 11.8135 25.9048 12.1215C25.888 12.3137 25.8655 12.5002 25.8403 12.6839C25.8319 12.7405 25.8235 12.7998 25.8123 12.8563C25.7842 13.0344 25.7506 13.2068 25.7085 13.3763C25.5992 13.8483 25.4478 14.2892 25.2543 14.6962C25.1477 14.9251 25.0272 15.1427 24.8926 15.349C23.8468 16.9543 21.9794 17.8898 19.1223 17.8898H9.72656V4.75647H19.4111C22.2738 4.75647 24.4384 5.92086 25.3973 8.19594C25.5207 8.48421 25.6244 8.79227 25.7057 9.11728C25.8627 9.73622 25.944 10.4202 25.944 11.1691Z" fill="#2A2767"/>
        <path d="M10.4238 33.4763L11.1612 32.1847H9.68359L10.4238 33.4763L11.1612 32.1847H9.68359L10.4238 33.4763Z" fill="#2A2767"/>
        <path d="M11.9023 33.4763L12.6397 32.1847H11.1621L11.9023 33.4763L12.6397 32.1847H11.1621L11.9023 33.4763Z" fill="#2A2767"/>
        <path d="M24.1337 37.6986H9.76953V33.6373H28.16C28.16 35.8785 26.3571 37.6986 24.1337 37.6986Z" fill="#2A2767"/>
        <path d="M12.333 34.7339L10.6367 37.6986H14.0294L12.333 34.7339L10.6367 37.6986H14.0294L12.333 34.7339Z" fill="#2B59A8"/>
        <path d="M12.332 36.407L11.5918 37.6985H13.0722L12.332 36.407L11.5918 37.6985H13.0722L12.332 36.407Z" fill="#2A2767"/>
        <path d="M16.1171 34.7339L14.418 37.6986H17.8134L16.1171 34.7339L14.418 37.6986H17.8134L16.1171 34.7339Z" fill="#2B59A8"/>
        <path d="M16.1172 36.407L15.377 37.6985H16.8546L16.1172 36.407L15.377 37.6985H16.8546L16.1172 36.407Z" fill="#2A2767"/>
        <path d="M19.9023 34.7339L18.2031 37.6986H21.5986L19.9023 34.7339L18.2031 37.6986H21.5986L19.9023 34.7339Z" fill="#2B59A8"/>
        <path d="M19.9023 36.407L19.1621 37.6985H20.6397L19.9023 36.407L19.1621 37.6985H20.6397L19.9023 36.407Z" fill="#2A2767"/>
        <path d="M23.6874 34.7339L21.9883 37.6986H25.3837L23.6874 34.7339L21.9883 37.6986H25.3837L23.6874 34.7339Z" fill="#2B59A8"/>
        <path d="M23.6875 36.407L22.9473 37.6985H24.4249L23.6875 36.407L22.9473 37.6985H24.4249L23.6875 36.407Z" fill="#2A2767"/>
        <path d="M13.3808 33.4763L14.1183 32.1847H12.6406L13.3808 33.4763L14.1183 32.1847H12.6406L13.3808 33.4763Z" fill="#2A2767"/>
        <path d="M14.8574 33.4763L15.5976 32.1847H14.1172L14.8574 33.4763L15.5976 32.1847H14.1172L14.8574 33.4763Z" fill="#2A2767"/>
        <path d="M16.3351 33.4763L17.0753 32.1847H15.5977L16.3351 33.4763L17.0753 32.1847H15.5977L16.3351 33.4763Z" fill="#2A2767"/>
        <path d="M17.8136 33.4763L18.5538 32.1847H17.0762L17.8136 33.4763L18.5538 32.1847H17.0762L17.8136 33.4763Z" fill="#2A2767"/>
        <path d="M19.2901 33.4763L20.0304 32.1847H18.5527L19.2901 33.4763L20.0304 32.1847H18.5527L19.2901 33.4763Z" fill="#2A2767"/>
        <path d="M20.7715 33.4763L21.5089 32.1847H20.0312L20.7715 33.4763L21.5089 32.1847H20.0312L20.7715 33.4763Z" fill="#2A2767"/>
        <path d="M22.248 33.4763L22.9854 32.1847H21.5078L22.248 33.4763L22.9854 32.1847H21.5078L22.248 33.4763Z" fill="#2A2767"/>
        <path d="M23.7265 33.4763L24.464 32.1847H22.9863L23.7265 33.4763L24.464 32.1847H22.9863L23.7265 33.4763Z" fill="#2A2767"/>
        <path d="M25.2031 33.4763L25.9433 32.1847H24.4629L25.2031 33.4763L25.9433 32.1847H24.4629L25.2031 33.4763Z" fill="#2A2767"/>
        <path d="M26.6808 33.4763L27.421 32.1847H25.9434L26.6808 33.4763L27.421 32.1847H25.9434L26.6808 33.4763Z" fill="#2A2767"/>
        <path d="M28.7229 32.1847C28.6359 32.4673 28.5406 32.7358 28.4313 32.9986L28.4257 33.0128L28.1593 33.4763L27.4219 32.1847H28.7229Z" fill="#2A2767"/>
        <path d="M29.3012 26.8488V27.8294C29.3012 29.0447 29.2002 30.1554 28.9899 31.153H9.76953V26.8488H29.3012Z" fill="#2A2767"/>
        <path d="M12.1577 29.8671C12.5727 29.8671 12.9091 29.528 12.9091 29.1097C12.9091 28.6914 12.5727 28.3523 12.1577 28.3523C11.7427 28.3523 11.4062 28.6914 11.4062 29.1097C11.4062 29.528 11.7427 29.8671 12.1577 29.8671Z" fill="white"/>
        <path d="M15.8549 29.8671C16.27 29.8671 16.6064 29.528 16.6064 29.1097C16.6064 28.6914 16.27 28.3523 15.8549 28.3523C15.4399 28.3523 15.1035 28.6914 15.1035 29.1097C15.1035 29.528 15.4399 29.8671 15.8549 29.8671Z" fill="white"/>
        <path d="M19.5542 29.8671C19.9692 29.8671 20.3056 29.528 20.3056 29.1097C20.3056 28.6914 19.9692 28.3523 19.5542 28.3523C19.1392 28.3523 18.8027 28.6914 18.8027 29.1097C18.8027 29.528 19.1392 29.8671 19.5542 29.8671Z" fill="white"/>
        <path d="M23.2514 29.8671C23.6664 29.8671 24.0029 29.528 24.0029 29.1097C24.0029 28.6914 23.6664 28.3523 23.2514 28.3523C22.8364 28.3523 22.5 28.6914 22.5 29.1097C22.5 29.528 22.8364 29.8671 23.2514 29.8671Z" fill="white"/>
        <path d="M26.9507 29.8671C27.3657 29.8671 27.7021 29.528 27.7021 29.1097C27.7021 28.6914 27.3657 28.3523 26.9507 28.3523C26.5356 28.3523 26.1992 28.6914 26.1992 29.1097C26.1992 29.528 26.5356 29.8671 26.9507 29.8671Z" fill="white"/>
        <path d="M25.3982 8.19594H9.76953V4.75647H19.412C22.2747 4.75647 24.4393 5.92086 25.3982 8.19594Z" fill="#2A2767"/>
        <path d="M25.7066 9.11726H9.76953V8.19592H25.3982C25.5216 8.48419 25.6253 8.79225 25.7066 9.11726Z" fill="#2854A5"/>
        <path d="M12.1577 7.42438C12.5727 7.42438 12.9091 7.08528 12.9091 6.66696C12.9091 6.24865 12.5727 5.90955 12.1577 5.90955C11.7427 5.90955 11.4062 6.24865 11.4062 6.66696C11.4062 7.08528 11.7427 7.42438 12.1577 7.42438Z" fill="white"/>
        <path d="M15.8549 7.42438C16.27 7.42438 16.6064 7.08528 16.6064 6.66696C16.6064 6.24865 16.27 5.90955 15.8549 5.90955C15.4399 5.90955 15.1035 6.24865 15.1035 6.66696C15.1035 7.08528 15.4399 7.42438 15.8549 7.42438Z" fill="white"/>
        <path d="M19.5542 7.42438C19.9692 7.42438 20.3056 7.08528 20.3056 6.66696C20.3056 6.24865 19.9692 5.90955 19.5542 5.90955C19.1392 5.90955 18.8027 6.24865 18.8027 6.66696C18.8027 7.08528 19.1392 7.42438 19.5542 7.42438Z" fill="white"/>
        <path d="M23.2514 7.42438C23.6664 7.42438 24.0029 7.08528 24.0029 6.66696C24.0029 6.24865 23.6664 5.90955 23.2514 5.90955C22.8364 5.90955 22.5 6.24865 22.5 6.66696C22.5 7.08528 22.8364 7.42438 23.2514 7.42438Z" fill="white"/>
        <path d="M10.2732 26.0348L14.0163 22.2647L10.2676 18.4861H20.6559L16.9127 22.2562L20.6615 26.0348H10.2732Z" fill="#2A2767"/>
        <path d="M18.2169 19.8709L15.4635 22.6434L12.7129 19.8709L14.0896 18.4861L15.4635 19.8709L16.8402 18.4861L18.2169 19.8709Z" fill="#3C4A9F"/>
        <path d="M12.7129 24.6501L15.4663 21.8776L18.2169 24.6501L16.8402 26.0349L15.4663 24.6501L14.0896 26.0349L12.7129 24.6501Z" fill="#3C4A9F"/>
        <path d="M29.1961 26.0348H22.5117L26.2549 22.2647L22.7472 18.7291C23.6809 18.9128 24.5081 19.2011 25.2315 19.5883C26.3726 20.1931 27.2586 21.0353 27.9091 22.0838C27.9568 22.1545 27.9989 22.2308 28.0409 22.3043C28.6353 23.3358 29.011 24.5539 29.1849 25.9274C29.1905 25.9613 29.1933 25.9981 29.1961 26.0348Z" fill="#2A2767"/>
        <path d="M28.041 22.3042L27.7018 22.6434L24.9512 19.8709L25.2316 19.5883C26.3727 20.1931 27.2587 21.0353 27.9092 22.0838C27.9569 22.1544 27.999 22.2307 28.041 22.3042Z" fill="#3C4A9F"/>
        <path d="M29.185 25.9275L29.0784 26.0349L27.7046 24.6501L26.3279 26.0349L24.9512 24.6501L27.3232 22.2619L27.7046 21.8776L27.9092 22.0839C27.9569 22.1545 27.999 22.2308 28.041 22.3043C28.6354 23.3359 29.0111 24.554 29.185 25.9275Z" fill="#3C4A9F"/>
        <path d="M12.0603 22.276L9.76953 20.0659V24.4861L12.0603 22.276L9.76953 20.0659V24.4861L12.0603 22.276Z" fill="#2A2767"/>
        <path d="M10.7677 22.276L9.76953 21.3123V23.2369L10.7677 22.276L9.76953 21.3123V23.2369L10.7677 22.276Z" fill="#3C4A9F"/>
        <path d="M21.3844 19.9917L19.0449 22.3499L21.3844 24.708L23.7239 22.3499L21.3844 19.9917Z" fill="#2A2767"/>
        <path d="M21.3845 21.1787L20.2207 22.3518L21.3845 23.5249L22.5483 22.3518L21.3845 21.1787Z" fill="#3C4A9F"/>
        <path d="M25.8403 12.6839C25.8319 12.7405 25.8235 12.7998 25.8123 12.8563L24.4047 11.2737L21.6738 14.3401L18.9456 11.2737L16.2147 14.3401L13.4837 11.2737L10.7556 14.3401L9.72656 13.1842V12.9807L10.7556 14.1366L13.4837 11.0702L16.2147 14.1366L18.9456 11.0702L21.6738 14.1366L24.4047 11.0702L25.8403 12.6839Z" fill="#2D5AA8"/>
        <path d="M25.9048 12.1216C25.888 12.3137 25.8655 12.5003 25.8403 12.684C25.8319 12.7405 25.8235 12.7998 25.8123 12.8564C25.7842 13.0344 25.7506 13.2068 25.7085 13.3764L24.4047 11.9096L21.6738 14.976L18.9456 11.9096L16.2147 14.976L13.4837 11.9096L10.7556 14.976L9.72656 13.8201V12.3477L10.7556 13.5036L13.4837 10.4343L16.2147 13.5036L18.9456 10.4343L21.6738 13.5036L24.4047 10.4343L25.9048 12.1216Z" fill="#2D5AA8"/>
        <path d="M10.7301 11.3076L11.4563 10.4315H10.0039L10.7301 11.3076L11.4563 10.4315H10.0039L10.7301 11.3076Z" fill="#2D5AA8"/>
        <path d="M16.2184 11.3076L16.9446 10.4315H15.4922L16.2184 11.3076L16.9446 10.4315H15.4922L16.2184 11.3076Z" fill="#2D5AA8"/>
        <path d="M21.7028 11.3076L22.429 10.4315H20.9766L21.7028 11.3076L22.429 10.4315H20.9766L21.7028 11.3076Z" fill="#2D5AA8"/>
        <path d="M13.4394 13.6957L12.0684 15.349H14.8133L13.4394 13.6957L12.0684 15.349H14.8133L13.4394 13.6957Z" fill="#2D5AA8"/>
        <path d="M18.9316 13.6957L17.5605 15.349H20.3055L18.9316 13.6957L17.5605 15.349H20.3055L18.9316 13.6957Z" fill="#2D5AA8"/>
        <path d="M25.2538 14.6962C25.1472 14.9251 25.0266 15.1427 24.8921 15.349H23.0527L24.4238 13.6957L25.2538 14.6962Z" fill="#2D5AA8"/>
        <path d="M11.5696 41.6523L10.6415 42.4889L9.60409 41.1465L7.91337 43.3707L6.22264 41.1465L4.53472 43.3707L2.84961 41.3867L3.66553 40.2082L4.53472 41.3725L6.22264 39.1455L7.91337 41.3725L9.60409 39.1455L11.5696 41.6523Z" fill="#2A2966"/>
        <path d="M7.16109 44.2411L6.23582 45.6231L5.31055 44.2411L6.23582 42.8591L7.16109 44.2411Z" fill="#2A2966"/>
    </g>
    <defs>
        <clipPath id="clip0_214_1358">
            <rect width="92" height="48" fill="white"/>
        </clipPath>
    </defs>
</svg>
