<svg width="23" height="23" viewBox="0 0 23 23" fill="none" xmlns="http://www.w3.org/2000/svg">
    <g clip-path="url(#clip0_350_2629)">
        <path d="M15.8125 0C11.7817 0 8.625 1.89462 8.625 4.3125V6.79171C8.16212 6.73708 7.68104 6.70833 7.1875 6.70833C3.15675 6.70833 0 8.60296 0 11.0208V18.6875C0 21.1054 3.15675 23 7.1875 23C10.4525 23 13.1445 21.757 14.0492 19.9995C14.6222 20.0828 15.2126 20.125 15.8125 20.125C19.8433 20.125 23 18.2304 23 15.8125V4.3125C23 1.89462 19.8433 0 15.8125 0ZM21.0833 11.9792C21.0833 13.11 18.8293 14.375 15.8125 14.375C15.3218 14.375 14.8407 14.3415 14.375 14.2763V12.375C14.8446 12.4296 15.3257 12.4583 15.8125 12.4583C17.9151 12.4583 19.78 11.9427 21.0833 11.1061V11.9792ZM1.91667 13.9811C3.22 14.8177 5.08492 15.3333 7.1875 15.3333C9.29008 15.3333 11.155 14.8177 12.4583 13.9811V14.8542C12.4583 15.985 10.2043 17.25 7.1875 17.25C4.17067 17.25 1.91667 15.985 1.91667 14.8542V13.9811ZM21.0833 8.14583C21.0833 9.27667 18.8293 10.5417 15.8125 10.5417C15.2998 10.5417 14.7967 10.5052 14.3117 10.4343C14.1268 9.58429 13.5451 8.8205 12.6768 8.20812C13.6198 8.47646 14.6817 8.625 15.8125 8.625C17.9151 8.625 19.78 8.10942 21.0833 7.27279V8.14583ZM15.8125 1.91667C18.8293 1.91667 21.0833 3.18167 21.0833 4.3125C21.0833 5.44333 18.8293 6.70833 15.8125 6.70833C12.7957 6.70833 10.5417 5.44333 10.5417 4.3125C10.5417 3.18167 12.7957 1.91667 15.8125 1.91667ZM7.1875 8.625C10.2043 8.625 12.4583 9.89 12.4583 11.0208C12.4583 12.1517 10.2043 13.4167 7.1875 13.4167C4.17067 13.4167 1.91667 12.1517 1.91667 11.0208C1.91667 9.89 4.17067 8.625 7.1875 8.625ZM7.1875 21.0833C4.17067 21.0833 1.91667 19.8183 1.91667 18.6875V17.8145C3.22 18.6511 5.08492 19.1667 7.1875 19.1667C9.29008 19.1667 11.155 18.6511 12.4583 17.8145V18.6875C12.4583 19.8183 10.2043 21.0833 7.1875 21.0833ZM15.8125 18.2083C15.3218 18.2083 14.8407 18.1748 14.375 18.1096V16.2083C14.8446 16.2629 15.3257 16.2917 15.8125 16.2917C17.9151 16.2917 19.78 15.7761 21.0833 14.9395V15.8125C21.0833 16.9433 18.8293 18.2083 15.8125 18.2083Z" fill="#393942"/>
    </g>
    <defs>
        <clipPath id="clip0_350_2629">
            <rect width="23" height="23" fill="white"/>
        </clipPath>
    </defs>
</svg>
