<svg width="22" height="22" viewBox="0 0 22 22" fill="none" xmlns="http://www.w3.org/2000/svg">
    <path d="M15.5833 0C11.9854 0 9.16667 1.61058 9.16667 3.66667V7.67983C8.33617 7.45983 7.40758 7.33333 6.41667 7.33333C2.81875 7.33333 0 8.94392 0 11V18.3333C0 20.3894 2.81875 22 6.41667 22C10.0146 22 12.8333 20.3894 12.8333 18.3333V17.9804C13.6886 18.2078 14.6254 18.3333 15.5833 18.3333C19.1812 18.3333 22 16.7227 22 14.6667V3.66667C22 1.61058 19.1812 0 15.5833 0ZM15.5833 0.916667C18.5643 0.916667 21.0833 2.17617 21.0833 3.66667C21.0833 5.15717 18.5643 6.41667 15.5833 6.41667C12.6023 6.41667 10.0833 5.15717 10.0833 3.66667C10.0833 2.17617 12.6023 0.916667 15.5833 0.916667ZM6.41667 8.25C9.39767 8.25 11.9167 9.5095 11.9167 11C11.9167 12.4905 9.39767 13.75 6.41667 13.75C3.43567 13.75 0.916667 12.4905 0.916667 11C0.916667 9.5095 3.43567 8.25 6.41667 8.25ZM0.916667 12.9067C2.02858 13.9682 4.05075 14.6667 6.41667 14.6667C8.78258 14.6667 10.8048 13.9682 11.9167 12.9067V14.6667C11.9167 16.1572 9.39767 17.4167 6.41667 17.4167C3.43567 17.4167 0.916667 16.1572 0.916667 14.6667V12.9067ZM6.41667 21.0833C3.43567 21.0833 0.916667 19.8238 0.916667 18.3333V16.5733C2.02858 17.6348 4.05075 18.3333 6.41667 18.3333C8.78258 18.3333 10.8048 17.6348 11.9167 16.5733V18.3333C11.9167 19.8238 9.39767 21.0833 6.41667 21.0833ZM15.5833 17.4167C14.6144 17.4167 13.6712 17.2801 12.8333 17.0298V14.3147C13.6877 14.542 14.6236 14.6657 15.5833 14.6657C17.9493 14.6657 19.9714 13.9673 21.0833 12.9058V14.6657C21.0833 16.1562 18.5643 17.4167 15.5833 17.4167ZM15.5833 13.75C14.6108 13.75 13.6712 13.6116 12.8333 13.3613V11C12.8333 10.8781 12.8223 10.758 12.8022 10.6398C13.662 10.8726 14.6016 11 15.5833 11C17.9493 11 19.9714 10.3015 21.0833 9.24V11C21.0833 12.4905 18.5643 13.75 15.5833 13.75ZM15.5833 10.0833C14.3834 10.0833 13.2568 9.88167 12.2962 9.51133C11.8213 8.88525 11.0532 8.35542 10.0833 7.975V5.57425C11.1953 6.63575 13.2174 7.33425 15.5833 7.33425C17.9493 7.33425 19.9714 6.63575 21.0833 5.57425V7.33425C21.0833 8.82475 18.5643 10.0843 15.5833 10.0843V10.0833Z" fill="#2A2767"/>
</svg>
