<svg width="18" height="23" viewBox="0 0 18 23" fill="none" xmlns="http://www.w3.org/2000/svg">
    <path d="M9 11.3611C12.309 11.3611 15 8.81338 15 5.68056C15 2.54773 12.309 0 9 0C5.691 0 3 2.54773 3 5.68056C3 8.81338 5.691 11.3611 9 11.3611ZM9 0.946759C11.757 0.946759 14 3.07034 14 5.68056C14 8.29077 11.757 10.4144 9 10.4144C6.243 10.4144 4 8.29077 4 5.68056C4 3.07034 6.243 0.946759 9 0.946759ZM18 21.7755V22.2488C18 22.5101 17.776 22.7222 17.5 22.7222C17.224 22.7222 17 22.5101 17 22.2488V21.7755C17 17.5993 13.411 14.2014 9 14.2014C4.589 14.2014 1 17.5993 1 21.7755V22.2488C1 22.5101 0.776 22.7222 0.5 22.7222C0.224 22.7222 0 22.5101 0 22.2488V21.7755C0 17.0776 4.038 13.2546 9 13.2546C13.962 13.2546 18 17.0776 18 21.7755Z" fill="#2A2767"/>
</svg>
