<svg width="19" height="19" viewBox="0 0 19 19" fill="none" xmlns="http://www.w3.org/2000/svg">
    <path d="M18.4131 12.8251L16.3548 5.40635C15.9153 3.81939 14.9575 2.42504 13.6341 1.44523C12.3106 0.465422 10.6974 -0.043547 9.05125 -0.000670552C7.4051 0.0422059 5.8206 0.634464 4.54992 1.68184C3.27924 2.72922 2.39541 4.17153 2.03908 5.77922L0.447042 12.9438C0.370007 13.2909 0.371886 13.6509 0.45254 13.9972C0.533194 14.3434 0.690566 14.6672 0.913044 14.9445C1.13552 15.2219 1.41743 15.4457 1.73797 15.5995C2.05851 15.7534 2.4095 15.8333 2.76504 15.8334H5.62058C5.80228 16.7282 6.28774 17.5327 6.99471 18.1105C7.70168 18.6884 8.58668 19.004 9.49975 19.004C10.4128 19.004 11.2978 18.6884 12.0048 18.1105C12.7118 17.5327 13.1972 16.7282 13.3789 15.8334H16.126C16.4918 15.8332 16.8527 15.7485 17.1804 15.586C17.5081 15.4234 17.7939 15.1873 18.0153 14.8961C18.2368 14.6049 18.388 14.2665 18.4571 13.9072C18.5263 13.548 18.5107 13.1776 18.4131 12.8251ZM9.49975 17.4167C9.01029 17.4147 8.53342 17.2615 8.13436 16.9781C7.73531 16.6947 7.43357 16.2949 7.27042 15.8334H11.7291C11.5659 16.2949 11.2642 16.6947 10.8651 16.9781C10.4661 17.2615 9.98921 17.4147 9.49975 17.4167ZM16.7554 13.9373C16.6815 14.0353 16.5858 14.1145 16.4758 14.1688C16.3658 14.2231 16.2447 14.251 16.122 14.2501H2.76504C2.6465 14.25 2.52947 14.2234 2.4226 14.1721C2.31573 14.1208 2.22175 14.0462 2.14758 13.9537C2.07342 13.8612 2.02097 13.7533 1.99411 13.6378C1.96724 13.5223 1.96665 13.4023 1.99238 13.2866L3.58442 6.12201C3.86495 4.86026 4.5592 3.72849 5.55682 2.90662C6.55444 2.08475 7.79816 1.61994 9.09028 1.58609C10.3824 1.55224 11.6488 1.95129 12.688 2.7198C13.7273 3.48831 14.4799 4.58218 14.8261 5.82751L16.8844 13.2462C16.918 13.3635 16.9239 13.4871 16.9015 13.607C16.8791 13.727 16.8291 13.8401 16.7554 13.9373Z" fill="#2A2767"/>
</svg>
