<svg width="18" height="23" viewBox="0 0 22 22" fill="none" xmlns="http://www.w3.org/2000/svg">
<path d="M18.001 3.99823C18.001 2.56923 18.572 1.99823 20.001 1.99823C21.43 1.99823 22.001 2.56923 22.001 3.99823C22.001 5.42723 21.43 5.99823 20.001 5.99823C18.572 5.99823 18.001 5.42723 18.001 3.99823ZM15.801 17.3982C14.89 16.1832 13.814 15.1072 12.601 14.1982C12.159 13.8672 11.533 13.9572 11.201 14.3982C10.87 14.8392 10.96 15.4662 11.402 15.7972C11.891 16.1642 12.347 16.5702 12.784 16.9972H7.002C6.45 16.9972 6.002 17.4442 6.002 17.9972C6.002 18.5502 6.45 18.9972 7.002 18.9972H12.784C12.348 19.4242 11.892 19.8302 11.402 20.1972C10.96 20.5282 10.87 21.1552 11.201 21.5962C11.534 22.0412 12.163 22.1262 12.601 21.7962C13.814 20.8872 14.891 19.8112 15.801 18.5962C16.054 18.2342 16.055 17.7602 15.801 17.3982ZM2.001 15.9982C0.572 15.9982 0.000999987 16.5692 0.000999987 17.9982C0.000999987 19.4272 0.572 19.9982 2.001 19.9982C3.43 19.9982 4.001 19.4272 4.001 17.9982C4.001 16.5692 3.43 15.9982 2.001 15.9982ZM18.868 13.2562C19.009 13.7942 19.573 14.1072 20.093 13.9642C20.626 13.8212 20.944 13.2742 20.801 12.7402C20.068 9.99823 17.384 9.99823 16.501 9.99823L4.501 9.99623C2.562 9.99623 2.001 9.43523 2.001 7.49623C2.001 5.55723 2.562 4.99623 4.501 4.99623L12.783 4.99823C12.347 5.42523 11.89 5.83123 11.401 6.19923C10.959 6.53023 10.869 7.15723 11.2 7.59823C11.533 8.04323 12.162 8.12823 12.6 7.79823C13.813 6.88923 14.89 5.81323 15.8 4.59823C16.053 4.23623 16.053 3.76023 15.8 3.39923C14.889 2.18423 13.813 1.10823 12.6 0.199226C12.158 -0.130774 11.532 -0.0417737 11.2 0.399226C10.869 0.840226 10.959 1.46723 11.401 1.79823C11.89 2.16523 12.346 2.57123 12.782 2.99823L4.5 2.99623C1.43 2.99623 0 4.42623 0 7.49623C0 10.5662 1.43 11.9962 4.5 11.9962L16.5 11.9982C18.375 11.9982 18.697 12.6192 18.867 13.2562H18.868ZM20.001 15.9982C18.572 15.9982 18.001 16.5692 18.001 17.9982C18.001 19.4272 18.572 19.9982 20.001 19.9982C21.43 19.9982 22.001 19.4272 22.001 17.9982C22.001 16.5692 21.43 15.9982 20.001 15.9982Z" fill="#393942"/>
</svg>
