<svg width="24" height="31" viewBox="0 0 24 31" fill="none" xmlns="http://www.w3.org/2000/svg">
    <path d="M12 30.1853C10.5396 30.1853 8.9844 29.3753 7.9404 28.0736C2.82 21.6894 0 16.1856 0 12.5772C0 5.64214 5.3832 0 12 0C18.6168 0 24 5.64214 24 12.5772C24 16.1856 21.18 21.6894 16.0596 28.0736C15.0168 29.3753 13.4604 30.1853 12 30.1853ZM12 1.25772C6.0456 1.25772 1.2 6.3364 1.2 12.5772C1.2 15.841 3.9924 21.1951 8.8596 27.2649C9.6684 28.2748 10.902 28.9263 12 28.9263C13.098 28.9263 14.3304 28.2736 15.1404 27.2649C20.0088 21.1951 22.8 15.841 22.8 12.5772C22.8 6.33514 17.9556 1.25772 12 1.25772Z" fill="#2A2767"/>
    <path d="M12.0002 17.6084C9.353 17.6084 7.2002 15.352 7.2002 12.5775C7.2002 9.80298 9.353 7.54663 12.0002 7.54663C14.6474 7.54663 16.8002 9.80298 16.8002 12.5775C16.8002 15.352 14.6474 17.6084 12.0002 17.6084ZM12.0002 8.80435C10.0154 8.80435 8.4002 10.4972 8.4002 12.5775C8.4002 14.6578 10.0154 16.3507 12.0002 16.3507C13.985 16.3507 15.6002 14.6578 15.6002 12.5775C15.6002 10.4972 13.985 8.80435 12.0002 8.80435Z" fill="#2A2767"/>
</svg>
