<svg width="16" height="16" viewBox="0 0 16 16" fill="none" xmlns="http://www.w3.org/2000/svg">
    <g clip-path="url(#clip0_335_1645)">
        <path d="M13.3333 10.6666C13.3333 11.2186 12.8853 11.6666 12.3333 11.6666C11.7813 11.6666 11.3333 11.2186 11.3333 10.6666C11.3333 10.1146 11.7813 9.66656 12.3333 9.66656C12.8853 9.66656 13.3333 10.1146 13.3333 10.6666ZM15.3333 5.33323C14.9647 5.33323 14.6667 5.63189 14.6667 5.99989V13.9999C14.6667 14.3672 14.368 14.6666 14 14.6666H3.33333C2.23067 14.6666 1.33333 13.7692 1.33333 12.6666V5.99989V5.99656C1.90267 6.42323 2.602 6.66656 3.33267 6.66656H9.99933C10.368 6.66656 10.666 6.36789 10.666 5.99989C10.666 5.63189 10.368 5.33323 9.99933 5.33323H3.33333C2.76267 5.33323 2.23133 5.07923 1.85533 4.66389C2.22133 4.25923 2.74533 3.99989 3.33333 3.99989H8C8.36867 3.99989 8.66667 3.70123 8.66667 3.33323C8.66667 2.96523 8.36867 2.66656 8 2.66656H3.33333C1.33333 2.66656 0 4.33323 0 5.99989V12.6666C0 14.5046 1.49533 15.9999 3.33333 15.9999H14C15.1027 15.9999 16 15.1026 16 13.9999V5.99989C16 5.63189 15.702 5.33323 15.3333 5.33323ZM11.1353 2.80723L12 1.95323V5.99989C12 6.36789 12.298 6.66656 12.6667 6.66656C13.0353 6.66656 13.3333 6.36789 13.3333 5.99989V1.96523L14.202 2.81056C14.3313 2.93656 14.4987 2.99989 14.6667 2.99989C14.8407 2.99989 15.014 2.93256 15.1447 2.79856C15.4013 2.53456 15.396 2.11256 15.1313 1.85589L13.6467 0.41056C13.0993 -0.13544 12.212 -0.134773 11.6667 0.407894L10.1973 1.85923C9.93533 2.11789 9.93333 2.53989 10.1913 2.80189C10.4513 3.06456 10.872 3.06589 11.1347 2.80789L11.1353 2.80723Z" fill="#2A2767"/>
    </g>
    <defs>
        <clipPath id="clip0_335_1645">
            <rect width="16" height="16" fill="white"/>
        </clipPath>
    </defs>
</svg>
