<svg width="15" height="17" viewBox="0 0 15 17" fill="none" xmlns="http://www.w3.org/2000/svg">
    <path d="M15 13.6953C14.9009 14.4969 14.8574 14.8447 14.4873 15.626L8.80273 16.7998C8.93341 15.9553 9.10751 15.3038 9.39062 14.9131L15 13.6953ZM7.08203 8.16699L8.78125 7.79785V2.43164C9.41414 1.7212 9.80251 1.40128 10.5664 0.998047V7.41016L15 6.44824C14.9009 7.24982 14.8574 7.59766 14.4873 8.37891L10.5664 9.20703V11.0107L15 10.0723C14.9009 10.8739 14.8575 11.2215 14.4873 12.0029L10.5664 12.8125V12.8291L8.78125 13.1982V9.58496L7.08203 9.94434V12.2217L7.05176 12.2275C6.6611 12.9124 6.11047 13.7358 5.5791 14.3926L0 15.4541C0.050038 14.7365 0.154929 14.3323 0.479492 13.6094L5.2959 12.5645V10.3213L0.831055 11.2666C0.881081 10.5487 0.985921 10.144 1.31055 9.4209L5.2959 8.55469V1.43262C5.92879 0.722175 6.31813 0.40324 7.08203 0V8.16699Z" fill="#2A2767"/>
</svg>
