<svg width="20" height="20" viewBox="0 0 20 20" fill="none" xmlns="http://www.w3.org/2000/svg">
    <path d="M18.7934 18.1662L14.0679 13.4407C15.3557 11.8658 15.9888 9.8561 15.8364 7.82743C15.684 5.79876 14.7576 3.90628 13.249 2.54144C11.7404 1.1766 9.76489 0.443817 7.73114 0.494667C5.69739 0.545518 3.76098 1.37611 2.32245 2.81464C0.883921 4.25317 0.0533302 6.18958 0.00247997 8.22333C-0.0483702 10.2571 0.684411 12.2326 2.04925 13.7412C3.41409 15.2498 5.30657 16.1761 7.33524 16.3286C9.36391 16.481 11.3736 15.8479 12.9485 14.5601L17.674 19.2856C17.8233 19.4298 18.0233 19.5096 18.2308 19.5078C18.4384 19.506 18.637 19.4227 18.7837 19.2759C18.9305 19.1291 19.0138 18.9306 19.0156 18.723C19.0174 18.5154 18.9376 18.3155 18.7934 18.1662ZM7.94201 14.7675C6.68939 14.7675 5.46491 14.3961 4.4234 13.7002C3.38188 13.0043 2.57012 12.0151 2.09077 10.8579C1.61141 9.70059 1.48599 8.42717 1.73037 7.19862C1.97474 5.97008 2.57793 4.84158 3.46366 3.95585C4.3494 3.07012 5.47789 2.46693 6.70644 2.22255C7.93498 1.97818 9.2084 2.1036 10.3657 2.58296C11.5229 3.06231 12.5121 3.87407 13.208 4.91558C13.9039 5.95709 14.2753 7.18158 14.2753 8.43419C14.2735 10.1133 13.6056 11.7231 12.4183 12.9105C11.2309 14.0978 9.62113 14.7656 7.94201 14.7675Z" fill="#2A2767"/>
</svg>
