<svg width="20" height="20" viewBox="0 0 20 20" fill="none" xmlns="http://www.w3.org/2000/svg">
    <g clip-path="url(#clip0_278_3981)">
        <path d="M3.88853 7.77754C4.51861 7.77702 5.13909 7.62321 5.69645 7.32936C6.2538 7.03551 6.73129 6.61045 7.0877 6.09087L12.5119 8.54004C12.1266 9.47034 12.1251 10.5153 12.5077 11.4467L7.09103 13.9084C6.56281 13.1444 5.77826 12.5951 4.8797 12.36C3.98115 12.1249 3.0281 12.2197 2.19343 12.6271C1.35876 13.0345 0.697763 13.7276 0.33033 14.5806C-0.0371017 15.4337 -0.0866299 16.3901 0.190731 17.2766C0.468092 18.163 1.05397 18.9206 1.84209 19.4121C2.63022 19.9035 3.56838 20.0962 4.48641 19.9552C5.40444 19.8142 6.24153 19.3489 6.84584 18.6435C7.45014 17.9382 7.78164 17.0397 7.7802 16.1109C7.77667 15.891 7.75436 15.6719 7.71353 15.4559L13.4719 12.8392C14.0249 13.3574 14.7173 13.7027 15.4639 13.8327C16.2105 13.9628 16.9788 13.8719 17.6745 13.5713C18.3702 13.2707 18.9629 12.7734 19.3799 12.1406C19.7968 11.5077 20.0198 10.7669 20.0215 10.009C20.0231 9.25114 19.8034 8.50931 19.3892 7.87463C18.9751 7.23995 18.3846 6.74006 17.6902 6.43639C16.9958 6.13272 16.2279 6.03849 15.4807 6.16527C14.7336 6.29205 14.0397 6.63432 13.4844 7.15004L7.71103 4.54337C7.75113 4.32753 7.77315 4.10871 7.77687 3.8892C7.77703 3.11993 7.54905 2.36788 7.12177 1.72819C6.69449 1.08849 6.08709 0.589874 5.3764 0.295408C4.66572 0.000944138 3.88367 -0.0761452 3.12916 0.0738926C2.37466 0.22393 1.6816 0.594355 1.13764 1.13831C0.593683 1.68227 0.223259 2.37533 0.0732212 3.12984C-0.0768166 3.88434 0.000272751 4.66639 0.294737 5.37708C0.589203 6.08776 1.08782 6.69516 1.72751 7.12244C2.36721 7.54973 3.11926 7.7777 3.88853 7.77754ZM3.88853 18.3334C3.44893 18.3335 3.01915 18.2033 2.65355 17.9592C2.28795 17.7151 2.00296 17.3681 1.83462 16.962C1.66627 16.5559 1.62214 16.109 1.7078 15.6778C1.79346 15.2466 2.00507 14.8505 2.31586 14.5396C2.62665 14.2287 3.02266 14.017 3.4538 13.9311C3.88495 13.8453 4.33186 13.8893 4.73802 14.0575C5.14418 14.2257 5.49133 14.5105 5.73558 14.876C5.97983 15.2415 6.1102 15.6713 6.1102 16.1109C6.10976 16.7 5.87557 17.265 5.45905 17.6816C5.04253 18.0983 4.4777 18.3327 3.88853 18.3334ZM16.1102 7.77754C16.5498 7.77737 16.9796 7.90758 17.3452 8.15169C17.7108 8.3958 17.9958 8.74285 18.1641 9.14895C18.3325 9.55504 18.3766 10.0019 18.2909 10.4331C18.2053 10.8643 17.9937 11.2604 17.6829 11.5713C17.3721 11.8822 16.9761 12.0939 16.5449 12.1798C16.1138 12.2656 15.6669 12.2216 15.2607 12.0534C14.8546 11.8852 14.5074 11.6004 14.2631 11.2349C14.0189 10.8694 13.8885 10.4396 13.8885 10C13.8892 9.41094 14.1234 8.84615 14.5399 8.42952C14.9564 8.01289 15.5211 7.77842 16.1102 7.77754ZM3.88853 1.6667C4.3281 1.6667 4.7578 1.79705 5.12329 2.04126C5.48878 2.28547 5.77364 2.63258 5.94185 3.03869C6.11007 3.4448 6.15408 3.89167 6.06833 4.32279C5.98257 4.75391 5.7709 5.14993 5.46008 5.46075C5.14925 5.77157 4.75324 5.98324 4.32212 6.069C3.891 6.15475 3.44413 6.11074 3.03802 5.94253C2.63191 5.77431 2.2848 5.48945 2.04059 5.12396C1.79638 4.75847 1.66603 4.32877 1.66603 3.8892C1.66647 3.29989 1.90077 2.73485 2.31747 2.31815C2.73418 1.90144 3.29922 1.66714 3.88853 1.6667Z" fill="#2A2767"/>
    </g>
    <defs>
        <clipPath id="clip0_278_3981">
            <rect width="20" height="20" fill="white" transform="matrix(-1 0 0 -1 20 20)"/>
        </clipPath>
    </defs>
</svg>
