<svg width="13" height="13" viewBox="0 0 13 13" fill="none" xmlns="http://www.w3.org/2000/svg">
    <path d="M4.20307 3.60248L5.70938 2.09564L5.72076 9.47932C5.72076 9.92803 6.08452 10.2918 6.53322 10.2918C6.98193 10.2918 7.34569 9.92803 7.34569 9.47932L7.33431 2.10485L8.83197 3.6025C9.1437 3.92526 9.65804 3.93419 9.98079 3.62246C10.3035 3.31073 10.3125 2.79639 10.0007 2.47364C9.9942 2.46686 9.98755 2.4602 9.98079 2.45368L8.24103 0.713912C7.28917 -0.237967 5.74589 -0.237967 4.79402 0.713887L4.79399 0.713912L3.05425 2.45365C2.74252 2.77641 2.75145 3.29075 3.0742 3.60248C3.38906 3.90657 3.88822 3.90657 4.20307 3.60248Z" fill="white"/>
    <path d="M12.187 7.85425C11.7383 7.85425 11.3745 8.218 11.3745 8.66671V11.1534C11.3742 11.2756 11.2752 11.3746 11.153 11.3749H1.84645C1.72423 11.3746 1.62521 11.2756 1.62493 11.1534V8.66671C1.62493 8.218 1.26117 7.85425 0.812465 7.85425C0.363756 7.85425 0 8.218 0 8.66671V11.1534C0.00119331 12.1727 0.827191 12.9986 1.84645 12.9998H11.153C12.1723 12.9986 12.9982 12.1727 12.9994 11.1534V8.66671C12.9994 8.218 12.6357 7.85425 12.187 7.85425Z" fill="white"/>
</svg>
