<svg width="41" height="41" viewBox="0 0 41 41" fill="none" xmlns="http://www.w3.org/2000/svg">
    <g clip-path="url(#clip0_440_3483)">
        <path d="M30.75 20.5C25.0886 20.5 20.5 25.0886 20.5 30.75C20.5 36.4114 25.0886 41 30.75 41C36.4114 41 41 36.4114 41 30.75C41 25.0886 36.4114 20.5 30.75 20.5ZM36.203 31.0951L32.4225 34.7236C31.6503 35.4855 30.6253 35.8699 29.5986 35.8699C28.5719 35.8699 27.5435 35.4855 26.7576 34.7185L24.8238 32.8239C24.149 32.1628 24.1405 31.0814 24.7999 30.4083C25.4593 29.7318 26.5407 29.7233 27.2155 30.3844L29.1476 32.2772C29.3936 32.5198 29.795 32.5147 30.0393 32.2738L33.837 28.6283C34.5152 27.9757 35.5983 27.9945 36.2525 28.6778C36.9051 29.3577 36.8829 30.4408 36.203 31.0951ZM17.0833 30.75C17.0833 26.6671 18.8737 23.0044 21.7112 20.5H8.54167C7.59696 20.5 6.83333 19.7364 6.83333 18.7917C6.83333 17.847 7.59696 17.0833 8.54167 17.0833H22.2083C23.153 17.0833 23.9167 17.847 23.9167 18.7917C23.9167 18.8327 23.915 18.8737 23.9115 18.9147C25.9223 17.7496 28.2575 17.0833 30.75 17.0833V8.54167C30.75 3.83179 26.9182 0 22.2083 0H8.54167C3.83179 0 0 3.83179 0 8.54167V32.4583C0 37.1682 3.83179 41 8.54167 41H21.7112C18.8737 38.4956 17.0833 34.8329 17.0833 30.75ZM8.54167 8.54167H22.2083C23.153 8.54167 23.9167 9.30529 23.9167 10.25C23.9167 11.1947 23.153 11.9583 22.2083 11.9583H8.54167C7.59696 11.9583 6.83333 11.1947 6.83333 10.25C6.83333 9.30529 7.59696 8.54167 8.54167 8.54167ZM11.9583 29.0417H8.54167C7.59696 29.0417 6.83333 28.278 6.83333 27.3333C6.83333 26.3886 7.59696 25.625 8.54167 25.625H11.9583C12.903 25.625 13.6667 26.3886 13.6667 27.3333C13.6667 28.278 12.903 29.0417 11.9583 29.0417Z" fill="#4BC27E"/>
    </g>
    <defs>
        <clipPath id="clip0_440_3483">
            <rect width="41" height="41" fill="white"/>
        </clipPath>
    </defs>
</svg>
