<svg width="24" height="21" viewBox="0 0 24 21" fill="none" xmlns="http://www.w3.org/2000/svg">
    <path d="M21 4.2H5C4.141 4.2 3.328 3.8094 2.765 3.15105C3.315 2.50635 4.114 2.1 5 2.1H23C23.553 2.1 24 1.6296 24 1.05C24 0.4704 23.553 0 23 0H5C2.239 0 0 2.35095 0 5.25V15.75C0 18.649 2.239 21 5 21H21C22.657 21 24 19.5898 24 17.85V7.35C24 5.61015 22.657 4.2 21 4.2ZM22 17.85C22 18.4286 21.552 18.9 21 18.9H5C3.346 18.9 2 17.4867 2 15.75V5.2479C2.854 5.91885 3.904 6.3 5 6.3H21C21.552 6.3 22 6.77145 22 7.35V17.85ZM20 12.6C20 13.1796 19.552 13.65 19 13.65C18.448 13.65 18 13.1796 18 12.6C18 12.0204 18.448 11.55 19 11.55C19.552 11.55 20 12.0204 20 12.6Z" fill="#393942"/>
</svg>
